# xmcd
#
# Track frame offsets:
#	150
#	15653
#	37263
#	52084
#	66881
#	83024
#	101627
#	118633
#	134233
#	150642
#	165395
#	183282
#	198630
#	217806
#	237706
#	255305
#	272417
#	290647
#	310598
#	325603
#
# Disc length: 4560 seconds
#
# Revision: 0
# Processed by: cddbd v1.5.1PL0 Copyright (c) Steve Scherf et al.
# Submitted via: dBpowerAMP V4.0
#
DISCID=1f11ce14
DTITLE=Various Artist - Back To Black DISC 7 Disco Inferno 1975-1979
DYEAR=2001
DGENRE=Vocal
TTITLE0=Sister Sledge/We Are Family
TTITLE1=Earth, Wind and Fire With The Emotions/Boogie Wonderland
TTITLE2=The Trammps/Disco Inferno
TTITLE3=Rose Royce/Car Wash
TTITLE4=Van McCoy With The Soul City Symphony/The Hustle
TTITLE5=Candi Staton/Young Hearts Run Free
TTITLE6=Donna Summer/I Feel Love
TTITLE7=Sylvester/You Make Me Feel(Mighty Real)
TTITLE8=Chic/Good Times
TTITLE9=Gloria Gaynor/I Will Survive
TTITLE10=Labelle/Lady Marmalade
TTITLE11=Barry White/Your'e The First, My Last, My Everything
TTITLE12=Tavares/Heaven Must Be Missing An Angel
TTITLE13=McFadden and Whitehead/Ain't No Stopping Us Now
TTITLE14=Third World/Now That We've Found Love
TTITLE15=Bob Marley/One Drop
TTITLE16=Gladys Knight and The Pips/Midnight Train To Georgia
TTITLE17=Teddy Prendergrass/The Whole Town's Laughing At Me
TTITLE18=Minnie Ripperton/Loving You
TTITLE19=Coomodores/Three Times A Lady
EXTD=\nCD number 7 in a 10 cd collection chronicling black music from 1900-1999
EXTT0=
EXTT1=
EXTT2=
EXTT3=
EXTT4=
EXTT5=
EXTT6=
EXTT7=
EXTT8=
EXTT9=
EXTT10=
EXTT11=
EXTT12=
EXTT13=
EXTT14=
EXTT15=
EXTT16=
EXTT17=
EXTT18=
EXTT19=
PLAYORDER=
